# xmcd CD database file
#
# Track frame offsets:
#	150
#	6513
#	13181
#	26489
#	34118
#	40475
#	46304
#	51383
#	56544
#	62955
#	65899
#	70227
#	81253
#	85546
#	92236
#	99586
#	105505
#	112047
#	117216
#	125328
#	133599
#	141441
#	146694
#	151119
#	156873
#	169454
#	173717
#	184598
#	188619
#	192468
#	197286
#	202899
#	209912
#
# Disc length: 2855 seconds
#
# Revision: 0
# Processed by: cddbd v1.5.2PL0 Copyright (c) Steve Scherf et al.
# Submitted via: CDex 1.51
#
DISCID=e50b2521
DTITLE=Various Artist - Bulles de JAZZ CD1
DYEAR=2008
DGENRE=Jazz
TTITLE0=A la peche aux moules
TTITLE1=A la soupe
TTITLE2=Ah! Mon beau chateau
TTITLE3=Ah! Vous dirai-je maman
TTITLE4=Ainsi font
TTITLE5=Alouette
TTITLE6=Amstramgram
TTITLE7=Une araignée sur le plancher
TTITLE8=Arlequin
TTITLE9=Au clair de la lune
TTITLE10=Au feu les pompiers
TTITLE11=Le bal des crapauds
TTITLE12=Ballade à la lune
TTITLE13=Barbapou
TTITLE14=Bateau sur l'eau (la riviere)
TTITLE15=Bon anniversaire
TTITLE16=Le bon roi Dagobert
TTITLE17=Bon voyage Mr Dumollet
TTITLE18=Bonjour ma cousine
TTITLE19=La bonne aventure
TTITLE20=Bonsoir Mme la lune
TTITLE21=La boulangère a des écus
TTITLE22=Cadet rousselle
TTITLE23=Un canard
TTITLE24=Chère Elise
TTITLE25=Compère Guilleri
TTITLE26=Les crocodiles
TTITLE27=Dame tartine
TTITLE28=Dans la forêt lointaine
TTITLE29=Derrière chez moi
TTITLE30=Un éléphant qui se balançait
TTITLE31=En passant par la lorraine
TTITLE32=Et moi de m'en courir
EXTD=YEAR: 2008
EXTT0=
EXTT1=
EXTT2=
EXTT3=
EXTT4=
EXTT5=
EXTT6=
EXTT7=
EXTT8=
EXTT9=
EXTT10=
EXTT11=
EXTT12=
EXTT13=
EXTT14=
EXTT15=
EXTT16=
EXTT17=
EXTT18=
EXTT19=
EXTT20=
EXTT21=
EXTT22=
EXTT23=
EXTT24=
EXTT25=
EXTT26=
EXTT27=
EXTT28=
EXTT29=
EXTT30=
EXTT31=
EXTT32=
PLAYORDER=
